<svg xmlns="http://www.w3.org/2000/svg" width="256" height="512" viewBox="0 0 256 512">
  <rect width="256" height="512" fill="none"/>
  <ellipse cx="128" cy="80" rx="46" ry="54" fill="#d9c5b2"/>
  <path d="M82 76 C86 20, 170 16, 176 76 C152 54, 108 48, 82 76 Z" fill="#3a312f"/>
  <path d="M72 154 L184 154 L210 338 L46 338 Z" fill="#45586f" stroke="#c6a86a" stroke-width="10"/>
  <path d="M92 154 L128 214 L164 154" fill="none" stroke="#e7e0d0" stroke-width="12"/>
  <path d="M56 184 L26 316 L62 326 L92 220" fill="#526a85"/>
  <path d="M200 184 L230 316 L194 326 L164 220" fill="#526a85"/>
  <path d="M86 338 L76 484 L118 484 L128 354 L138 484 L180 484 L170 338 Z" fill="#343a43"/>
  <rect x="48" y="228" width="34" height="102" rx="8" fill="#7e8fa2" stroke="#c6a86a" stroke-width="6"/>
  <path d="M208 202 L222 332" stroke="#c9cbd0" stroke-width="8"/>
  <path d="M218 190 L228 206 L214 208 Z" fill="#c9cbd0"/>
  <text x="128" y="382" text-anchor="middle" font-family="sans-serif" font-size="20" font-weight="700" fill="#ffffff">CYANIS</text>
  <text x="128" y="408" text-anchor="middle" font-family="sans-serif" font-size="13" fill="#d6d9de">7B.5A PLACEHOLDER</text>
</svg>
